<svg xmlns="http://www.w3.org/2000/svg" viewBox="0 0 272 214">
<defs><linearGradient id="shell" x1="0" y1="0" x2="1" y2="1"><stop stop-color="#aaa7aa"/><stop offset=".48" stop-color="#77747b"/><stop offset="1" stop-color="#5b5960"/></linearGradient><linearGradient id="water" x1="0" y1="0" x2="1" y2="1"><stop stop-color="#748b94"/><stop offset=".5" stop-color="#45616a"/><stop offset="1" stop-color="#273f48"/></linearGradient><filter id="glow"><feGaussianBlur stdDeviation="2.2" result="b"/><feMerge><feMergeNode in="b"/><feMergeNode in="SourceGraphic"/></feMerge></filter><clipPath id="inside"><rect x="20" y="18" width="232" height="184" rx="32"/></clipPath></defs>
<style>
@keyframes surface{from{transform:translate(-3px,-1px) rotate(-1deg)}to{transform:translate(3px,1px) rotate(1deg)}}@keyframes highlight{from{transform:translateX(-2px);opacity:.35}to{transform:translateX(2px);opacity:.85}}@keyframes ripple{from{transform:scale(.4);opacity:.85}to{transform:scale(2.5);opacity:0}}@keyframes colour{0%{fill:#36bfff}20%{fill:#4fe2cf}40%{fill:#ffe36a}60%{fill:#ff9564}80%{fill:#d878ff}100%{fill:#36bfff}}
@keyframes ru{0%{opacity:0;transform:translate(-2px,4px) scale(.4)}12%{opacity:.9}100%{opacity:0;transform:translate(13px,-31px) scale(1.1)}}@keyframes lu{0%{opacity:0;transform:translate(2px,4px) scale(.4)}12%{opacity:.9}100%{opacity:0;transform:translate(-13px,-31px) scale(1.1)}}@keyframes r{0%{opacity:0;transform:translate(-1px,4px) scale(.4)}12%{opacity:.9}100%{opacity:0;transform:translate(15px,-26px) scale(1.1)}}@keyframes l{0%{opacity:0;transform:translate(1px,4px) scale(.4)}12%{opacity:.9}100%{opacity:0;transform:translate(-15px,-25px) scale(1.1)}}@keyframes u{0%{opacity:0;transform:translate(0,5px) scale(.4)}12%{opacity:.9}100%{opacity:0;transform:translate(0,-32px) scale(1.1)}}@keyframes rd{0%{opacity:0;transform:translate(-1px,-3px) scale(.4)}12%{opacity:.9}100%{opacity:0;transform:translate(13px,25px) scale(1.1)}}@keyframes ld{0%{opacity:0;transform:translate(1px,-3px) scale(.4)}12%{opacity:.9}100%{opacity:0;transform:translate(-13px,25px) scale(1.1)}}
.surface{animation:surface 1.15s ease-in-out infinite alternate}.highlight{animation:highlight 1s ease-in-out infinite alternate}.jet{animation:ripple 1s ease-out infinite}.led{animation:colour 3s linear infinite}.bubble{animation-duration:1.4s;animation-timing-function:linear;animation-iteration-count:infinite}.ru{animation-name:ru}.lu{animation-name:lu}.r{animation-name:r}.l{animation-name:l}.u{animation-name:u}.rd{animation-name:rd}.ld{animation-name:ld}.b2{animation-delay:.18s}.b3{animation-delay:.36s}.b4{animation-delay:.54s}.b5{animation-delay:.72s}.b6{animation-delay:.9s}
</style>
<rect x="6" y="5" width="260" height="204" rx="43" fill="url(#shell)" stroke="#4e4c52"/><rect x="14" y="13" width="244" height="188" rx="35" fill="#55535a" stroke="#bcb9bc" stroke-opacity=".4"/><rect x="20" y="18" width="232" height="184" rx="32" fill="url(#water)" stroke="#1f3036"/>
<path class="surface" d="M30 62C72 51 112 68 145 58S211 50 242 65M27 151C68 140 101 159 139 148S211 139 246 154" fill="none" stroke="#d9f4ff" stroke-opacity=".2" stroke-width="2"/><path class="highlight" d="M42 33C91 25 181 27 230 38" fill="none" stroke="#dff7ff" stroke-opacity=".25" stroke-width="4"/>
<path d="M102 78Q108 68 120 66L153 66Q166 68 171 78L178 96Q181 108 173 120L162 139Q156 148 145 150L127 150Q116 148 110 139L99 120Q91 108 94 96Z" fill="#354c54" stroke="#91a4aa" stroke-opacity=".3"/>
<g fill="#1f2c30" stroke="#dce7e9" stroke-opacity=".5"><circle cx="52" cy="48" r="4.2"/><circle cx="71" cy="42" r="4.2"/><circle cx="201" cy="42" r="4.2"/><circle cx="220" cy="48" r="4.2"/><circle cx="51" cy="99" r="4.2"/><circle cx="67" cy="108" r="4.2"/><circle cx="205" cy="108" r="4.2"/><circle cx="221" cy="99" r="4.2"/><circle cx="55" cy="160" r="4.2"/><circle cx="74" cy="168" r="4.2"/><circle cx="198" cy="168" r="4.2"/><circle cx="217" cy="160" r="4.2"/><circle cx="106" cy="76" r="3.2"/><circle cx="121" cy="72" r="3.2"/><circle cx="151" cy="72" r="3.2"/><circle cx="166" cy="76" r="3.2"/><circle cx="102" cy="92" r="3.2"/><circle cx="171" cy="92" r="3.2"/><circle cx="100" cy="118" r="3.2"/><circle cx="174" cy="118" r="3.2"/><circle cx="111" cy="137" r="3.2"/><circle cx="163" cy="137" r="3.2"/></g>
<g fill="none" stroke="#d4f3ff" stroke-width="1"><circle class="jet" cx="52" cy="48" r="5"/><circle class="jet" cx="220" cy="48" r="5"/><circle class="jet" cx="51" cy="99" r="5"/><circle class="jet" cx="221" cy="99" r="5"/><circle class="jet" cx="55" cy="160" r="5"/><circle class="jet" cx="217" cy="160" r="5"/></g>
<g fill="#9fe4ff" filter="url(#glow)"><circle class="led" cx="27" cy="76" r="2.2"/><circle class="led" cx="27" cy="145" r="2.2"/><circle class="led" cx="64" cy="74" r="2.2"/><circle class="led" cx="208" cy="74" r="2.2"/><circle class="led" cx="245" cy="76" r="2.2"/><circle class="led" cx="245" cy="145" r="2.2"/><circle class="led" cx="74" cy="145" r="2.2"/><circle class="led" cx="198" cy="145" r="2.2"/><circle class="led" cx="91" cy="56" r="2.2"/><circle class="led" cx="181" cy="56" r="2.2"/><circle class="led" cx="136" cy="154" r="2.2"/></g>
<g clip-path="url(#inside)" fill="none" stroke="#e3f7ff" stroke-width="1">
<circle class="bubble ru" cx="31" cy="31" r="1"/><circle class="bubble u b2" cx="38" cy="34" r="1.25"/><circle class="bubble r b3" cx="46" cy="38" r="1.55"/><circle class="bubble ru b4" cx="34" cy="45" r="1.1"/><circle class="bubble u b5" cx="43" cy="48" r="1"/>
<circle class="bubble lu b2" cx="214" cy="34" r="1.25"/><circle class="bubble l b3" cx="224" cy="31" r="1.55"/><circle class="bubble lu b4" cx="232" cy="37" r="1.1"/><circle class="bubble u b5" cx="219" cy="45" r="1"/><circle class="bubble l b6" cx="237" cy="48" r="1.25"/>
<circle class="bubble ru" cx="31" cy="164" r="1.55"/><circle class="bubble r b2" cx="36" cy="174" r="1.1"/><circle class="bubble u b3" cx="43" cy="184" r="1"/><circle class="bubble ru b4" cx="32" cy="190" r="1.25"/><circle class="bubble u b5" cx="48" cy="194" r="1.55"/>
<circle class="bubble lu" cx="214" cy="184" r="1.1"/><circle class="bubble l b2" cx="226" cy="192" r="1"/><circle class="bubble u b3" cx="236" cy="184" r="1.25"/><circle class="bubble lu b4" cx="220" cy="174" r="1.55"/><circle class="bubble l b5" cx="232" cy="164" r="1.1"/>
<circle class="bubble ru" cx="52" cy="60" r="1"/><circle class="bubble u b2" cx="72" cy="52" r="1.25"/><circle class="bubble lu b3" cx="188" cy="54" r="1.55"/><circle class="bubble l b4" cx="202" cy="67" r="1.1"/><circle class="bubble r b5" cx="51" cy="151" r="1"/><circle class="bubble u b6" cx="68" cy="169" r="1.25"/><circle class="bubble l" cx="190" cy="166" r="1.55"/><circle class="bubble lu b2" cx="204" cy="150" r="1.1"/>
<circle class="bubble ru" cx="96" cy="72" r="1"/><circle class="bubble u b2" cx="116" cy="66" r="1.25"/><circle class="bubble lu b3" cx="137" cy="74" r="1.55"/><circle class="bubble r b4" cx="158" cy="67" r="1.1"/><circle class="bubble u b5" cx="178" cy="76" r="1"/><circle class="bubble r b6" cx="94" cy="116" r="1.25"/><circle class="bubble u" cx="108" cy="128" r="1.55"/><circle class="bubble lu b2" cx="125" cy="112" r="1.1"/><circle class="bubble ru b3" cx="143" cy="125" r="1"/><circle class="bubble l b4" cx="160" cy="112" r="1.25"/><circle class="bubble u b5" cx="179" cy="126" r="1.55"/>
</g>
<path d="M95 184Q101 174 113 172L159 172Q171 174 177 184L180 198Q176 203 169 203L103 203Q96 203 92 198Z" fill="url(#shell)" stroke="#55525a"/><rect x="112" y="181" width="48" height="18" rx="8" fill="#25262a" stroke="#ddd7cd" stroke-width="1.8"/><text x="136" y="193" text-anchor="middle" fill="#ffb45c" font-size="7.5" font-family="monospace" font-weight="700">38.5°</text>
</svg>